<svg width="7" height="6" viewBox="0 0 7 6" fill="none" xmlns="http://www.w3.org/2000/svg">
<path id="Vector" d="M0.698987 0.36742C0.787622 0.278784 0.907838 0.228989 1.03319 0.228989C1.15854 0.228989 1.27875 0.278784 1.36739 0.36742L3.37258 2.37262L5.37778 0.367419C5.46642 0.278784 5.58663 0.228989 5.71198 0.228989C5.83733 0.228989 5.95754 0.278784 6.04618 0.36742C6.13481 0.456055 6.18461 0.57627 6.18461 0.701619C6.18461 0.826968 6.13481 0.947183 6.04618 1.03582L4.04098 3.04102L6.04618 5.04621C6.13481 5.13485 6.18461 5.25506 6.18461 5.38041C6.18461 5.50576 6.13481 5.62598 6.04618 5.71461C5.95754 5.80325 5.83733 5.85304 5.71198 5.85304C5.58663 5.85304 5.46642 5.80325 5.37778 5.71461L3.37258 3.70941L1.36739 5.71461C1.27875 5.80325 1.15854 5.85304 1.03319 5.85304C0.907838 5.85304 0.787622 5.80325 0.698987 5.71461C0.610352 5.62598 0.560557 5.50576 0.560557 5.38041C0.560557 5.25506 0.610352 5.13485 0.698987 5.04621L2.70418 3.04102L0.698987 1.03582C0.610352 0.947183 0.560557 0.826968 0.560557 0.701619C0.560557 0.57627 0.610352 0.456055 0.698987 0.36742Z" fill="#DB3C3C"/>
</svg>
