<svg width="17" height="13" viewBox="0 0 17 13" fill="none" xmlns="http://www.w3.org/2000/svg">
<path d="M0.151336 0.335485C0.275248 0.161336 0.461905 0.0444753 0.670283 0.0105863C0.878661 -0.0233028 1.09171 0.0285525 1.26261 0.154756L16.6527 11.518C16.7406 11.5791 16.8156 11.6577 16.8732 11.7489C16.9309 11.8401 16.97 11.9422 16.9882 12.0492C17.0065 12.1561 17.0035 12.2656 16.9795 12.3714C16.9555 12.4771 16.9109 12.5768 16.8485 12.6647C16.786 12.7526 16.7069 12.8268 16.6158 12.8829C16.5247 12.9391 16.4235 12.976 16.3182 12.9916C16.2129 13.0072 16.1055 13.0011 16.0026 12.9736C15.8996 12.9461 15.8031 12.8979 15.7187 12.8318L13.3327 11.0699C12.0421 12.1099 10.3927 12.9865 8.49065 12.9865C6.38805 12.9865 4.59536 11.913 3.25483 10.7377C1.90687 9.55807 0.933578 8.1999 0.455954 7.46724C0.267572 7.17933 0.16704 6.84098 0.16704 6.49488C0.16704 6.14878 0.267572 5.81043 0.455954 5.52251C0.830624 4.9457 1.51203 3.98578 2.43863 3.02802L0.328588 1.46856C0.157789 1.34222 0.0431773 1.1519 0.0099403 0.939431C-0.0232967 0.726964 0.0275609 0.509735 0.151336 0.335485ZM1.78163 6.41967C1.76669 6.44121 1.75855 6.46688 1.75828 6.49326C1.75828 6.51598 1.76464 6.54196 1.78163 6.56685C2.21892 7.2389 3.09987 8.46071 4.29287 9.50721C5.49224 10.5602 6.92723 11.3632 8.49065 11.3632C9.75901 11.3632 10.9425 10.8351 11.9826 10.0743L9.61891 8.3276C9.26054 8.55711 8.84308 8.67217 8.42011 8.658C7.99715 8.64384 7.58799 8.50109 7.24517 8.24809C6.90235 7.9951 6.64152 7.6434 6.49617 7.23815C6.35082 6.8329 6.32758 6.39261 6.42944 5.9738L3.74519 3.99119C3.01092 4.73006 2.35295 5.54382 1.78163 6.41967ZM8.49065 1.62331C7.94298 1.62331 7.41122 1.72071 6.89963 1.89495C6.79973 1.93159 6.69364 1.94749 6.58762 1.94171C6.4816 1.93592 6.37778 1.90857 6.28229 1.86126C6.18679 1.81395 6.10154 1.74764 6.03155 1.66623C5.96156 1.58482 5.90826 1.48996 5.87477 1.38723C5.84128 1.2845 5.82828 1.17597 5.83654 1.06805C5.8448 0.960118 5.87416 0.854965 5.92288 0.758778C5.97159 0.662591 6.03869 0.577312 6.12022 0.507962C6.20175 0.438613 6.29606 0.386593 6.3976 0.354965C7.07189 0.122112 7.77874 0.00223587 8.49065 0C10.5933 0 12.3859 1.07355 13.7265 2.24883C15.0744 3.42952 16.0477 4.78661 16.5254 5.52035C16.7138 5.80843 16.8144 6.14696 16.8144 6.49326C16.8144 6.83955 16.7138 7.17809 16.5254 7.46616C16.4086 7.64581 16.2621 7.86117 16.0902 8.10142C16.0284 8.1874 15.9505 8.26013 15.8612 8.31544C15.7718 8.37076 15.6726 8.40758 15.5693 8.42381C15.4659 8.44004 15.3605 8.43536 15.2589 8.41003C15.1573 8.3847 15.0616 8.33923 14.9773 8.2762C14.893 8.21317 14.8217 8.13382 14.7674 8.04268C14.7132 7.95155 14.677 7.85041 14.6611 7.74504C14.6452 7.63968 14.6498 7.53215 14.6746 7.42859C14.6995 7.32503 14.7441 7.22748 14.8059 7.1415C14.963 6.92398 15.0946 6.7281 15.1997 6.56793C15.2147 6.54623 15.2227 6.52034 15.2227 6.4938C15.2227 6.46726 15.2147 6.44137 15.1997 6.41967C14.7624 5.74761 13.8814 4.5258 12.6884 3.4793C11.4891 2.42631 10.0541 1.62331 8.49065 1.62331Z" fill="black"/>
</svg>
