<svg width="22" height="14" viewBox="0 0 22 14" fill="none" xmlns="http://www.w3.org/2000/svg">
<path d="M20.8754 6.28723C20.6882 6.03084 16.2158 0 10.5082 0C4.80064 0 0.320431 6.02972 0.133152 6.28612C0.0466237 6.40477 0 6.54782 0 6.69467C0 6.84153 0.0466237 6.98458 0.133152 7.10323C0.320431 7.35963 4.79284 13.3905 10.5004 13.3905C16.208 13.3905 20.6837 7.36074 20.8676 7.10435C20.9555 6.9866 21.0036 6.84396 21.005 6.69706C21.0064 6.55017 20.961 6.40664 20.8754 6.28723ZM10.5082 12.0059C6.3011 12.0059 2.65696 8.00396 1.57788 6.69524C2.65473 5.3854 6.29107 1.38565 10.5082 1.38565C14.7253 1.38565 18.3583 5.38763 19.4385 6.69635C18.3561 8.00508 14.7209 12.0004 10.5037 12.0004L10.5082 12.0059Z" fill="#666666"/>
<path d="M10.5035 2.53906C9.68153 2.53906 8.87805 2.7828 8.19463 3.23944C7.51121 3.69609 6.97856 4.34513 6.66401 5.1045C6.34947 5.86388 6.26715 6.69948 6.42751 7.50563C6.58786 8.31178 6.98367 9.05228 7.56487 9.63348C8.14607 10.2147 8.88657 10.6105 9.69272 10.7708C10.4989 10.9312 11.3345 10.8489 12.0938 10.5343C12.8532 10.2198 13.5023 9.68714 13.9589 9.00372C14.4156 8.3203 14.6593 7.51682 14.6593 6.69487C14.6581 5.59304 14.2199 4.53667 13.4408 3.75756C12.6617 2.97845 11.6053 2.54024 10.5035 2.53906ZM10.5035 9.46505C9.95559 9.46505 9.42001 9.30257 8.96446 8.99818C8.5089 8.69379 8.15384 8.26114 7.94417 7.75496C7.7345 7.24878 7.67964 6.6918 7.78653 6.15444C7.89341 5.61708 8.15726 5.12349 8.54467 4.73607C8.93209 4.34866 9.42568 4.08481 9.96304 3.97793C10.5004 3.87104 11.0574 3.9259 11.5636 4.13557C12.0698 4.34524 12.5024 4.70029 12.8068 5.15584C13.1112 5.61139 13.2736 6.14699 13.2736 6.69487C13.2728 7.4293 12.9806 8.13339 12.4613 8.65271C11.942 9.17202 11.2379 9.46416 10.5035 9.46505Z" fill="#666666"/>
</svg>
