<svg width="125" height="42" viewBox="0 0 125 42" fill="none" xmlns="http://www.w3.org/2000/svg">
<path d="M21.24 5.08C20.8133 4.89333 20.3867 4.8 19.96 4.8C19.56 4.8 19.16 5.05333 18.76 5.56C18.3867 6.06667 18.1333 6.8 18 7.76L15.92 22.6C15.5467 25.2933 14.6133 27.4133 13.12 28.96C11.6533 30.5067 9.81333 31.28 7.6 31.28C5.38667 31.28 3.66667 30.6667 2.44 29.44C1.24 28.1867 0.64 26.7067 0.64 25C0.64 23.2667 1.22667 21.8 2.4 20.6C3.6 19.4 5.10667 18.8 6.92 18.8C8.04 18.8 8.92 18.88 9.56 19.04L9.36 21.48C8.90667 21.3733 8.2 21.32 7.24 21.32C6.30667 21.32 5.46667 21.64 4.72 22.28C4 22.92 3.64 23.72 3.64 24.68C3.64 25.64 3.90667 26.3867 4.44 26.92C4.97333 27.4267 5.61333 27.68 6.36 27.68C8.6 27.68 9.90667 26.0267 10.28 22.72C11 16.1067 11.52 11.64 11.84 9.32C10.24 9.88 8.82667 10.16 7.6 10.16C5.65333 10.16 4.16 9.70667 3.12 8.8C2.10667 7.89333 1.6 6.70666 1.6 5.24C1.6 3.77333 2.12 2.62666 3.16 1.8C4.22667 0.946666 5.56 0.519999 7.16 0.519999C8.14667 0.519999 9.56 0.826666 11.4 1.44C13.2667 2.05333 14.7067 2.36 15.72 2.36C17.5333 2.36 19.0533 1.89333 20.28 0.959998C20.9467 1.89333 21.28 3 21.28 4.28C21.28 4.54666 21.2667 4.81333 21.24 5.08ZM5.56 6.32C5.56 6.72 5.77333 7.06666 6.2 7.36C6.65333 7.65333 7.32 7.8 8.2 7.8C9.10667 7.8 10.28 7.4 11.72 6.6C10.68 6.36 9.61333 6.09333 8.52 5.8C7.42667 5.48 6.77333 5.32 6.56 5.32C5.89333 5.32 5.56 5.65333 5.56 6.32ZM31.0559 26.52L32.0159 17.6C32.0159 16.88 31.8293 16.28 31.4559 15.8C31.0826 15.32 30.4559 15.08 29.5759 15.08C28.7226 15.08 27.9893 15.4667 27.3759 16.24C26.7893 16.9867 26.4159 17.9333 26.2559 19.08C25.2959 26.3867 24.7893 30.36 24.7359 31H19.3359L21.5359 12.16C22.6559 11.8667 23.5093 11.72 24.0959 11.72C25.8826 11.72 26.8159 12.3733 26.8959 13.68C28.2026 12.4 29.7626 11.76 31.5759 11.76C33.4159 11.76 34.8559 12.2133 35.8959 13.12C36.9359 14.0267 37.4559 15.1733 37.4559 16.56C37.4559 16.9333 37.3759 17.64 37.2159 18.68C36.6026 22.7333 36.2959 25.0933 36.2959 25.76C36.2959 26.9867 36.7093 27.6 37.5359 27.6C39.3493 27.6 40.7226 25.7067 41.6559 21.92C42.5626 22.88 43.1093 23.64 43.2959 24.2C41.8826 28.8933 39.4293 31.24 35.9359 31.24C34.2826 31.24 33.0559 30.7333 32.2559 29.72C31.4559 28.7067 31.0559 27.64 31.0559 26.52ZM55.6781 2.16C55.8648 1.70667 56.2781 1.33333 56.9181 1.04C57.5848 0.719999 58.3715 0.559999 59.2781 0.559999C60.2115 0.559999 60.9048 0.693332 61.3581 0.959998C61.0915 3.04 60.6648 6.30667 60.0781 10.76C58.8515 20.0667 58.2381 25.2 58.2381 26.16C58.2381 27.0933 58.6381 27.56 59.4381 27.56C60.1315 27.56 60.8515 27.1333 61.5981 26.28C62.3448 25.4 63.0248 23.9733 63.6381 22C64.3848 22.72 64.9048 23.5067 65.1981 24.36C64.2381 27.5333 62.7315 29.5867 60.6781 30.52C59.7448 30.9733 58.8648 31.2 58.0381 31.2C55.6648 31.2 54.0781 30.3467 53.2781 28.64C51.8915 30.3733 50.1181 31.24 47.9581 31.24C45.7981 31.24 43.9715 30.5067 42.4781 29.04C41.0115 27.5733 40.2781 25.64 40.2781 23.24C40.2781 19.7467 41.3048 16.96 43.3581 14.88C45.4115 12.8 48.0115 11.76 51.1581 11.76C51.2381 11.76 51.3181 11.76 51.3981 11.76C52.4915 11.76 53.5181 11.92 54.4781 12.24L55.6781 2.16ZM51.7581 14.88C50.0515 14.88 48.6915 15.5333 47.6781 16.84C46.6915 18.12 46.1048 20.04 45.9181 22.6C45.8915 22.84 45.8781 23.0667 45.8781 23.28C45.8781 24.5867 46.1848 25.6267 46.7981 26.4C47.4381 27.1733 48.2515 27.56 49.2381 27.56C50.9181 27.56 52.1848 26.3733 53.0381 24L54.0781 15.4C53.1981 15.0533 52.4248 14.88 51.7581 14.88ZM65.3522 1.56C65.9655 0.919998 66.7122 0.599998 67.5922 0.599998C68.4722 0.599998 69.2189 0.919998 69.8322 1.56C70.4722 2.17333 70.7922 2.92 70.7922 3.8C70.7922 4.68 70.4722 5.42667 69.8322 6.04C69.2189 6.65333 68.4722 6.96 67.5922 6.96C66.7122 6.96 65.9655 6.65333 65.3522 6.04C64.7389 5.42667 64.4322 4.68 64.4322 3.8C64.4322 2.92 64.7389 2.17333 65.3522 1.56ZM63.7122 13.28C63.9789 12.8 64.4855 12.44 65.2322 12.2C65.9789 11.9333 66.7122 11.8 67.4322 11.8C68.1789 11.8 68.8322 11.8933 69.3922 12.08C68.3522 20.1067 67.8322 24.16 67.8322 24.24C67.6989 24.7733 67.6322 25.2267 67.6322 25.6C67.6322 25.9467 67.6589 26.2533 67.7122 26.52C67.8189 27.2133 68.2989 27.56 69.1522 27.56C70.0322 27.56 70.8322 27 71.5522 25.88C72.2989 24.7333 72.8589 23.44 73.2322 22C73.4189 22.1067 73.7122 22.4267 74.1122 22.96C74.5122 23.4933 74.7522 23.8933 74.8322 24.16C74.2989 26.2933 73.3922 28.0133 72.1122 29.32C70.8322 30.6267 69.2989 31.28 67.5122 31.28C65.7255 31.28 64.3922 30.84 63.5122 29.96C62.6589 29.08 62.2322 27.9467 62.2322 26.56C62.2322 26.2667 62.2455 25.96 62.2722 25.64L63.7122 13.28ZM75.97 11.72C77.7033 11.72 78.7167 12.16 79.01 13.04C80.2633 12.16 81.85 11.72 83.77 11.72C85.69 11.72 87.3433 12.5067 88.73 14.08C90.1167 15.6533 90.81 17.4933 90.81 19.6C90.81 19.8933 90.7967 20.2 90.77 20.52C90.4767 24.0133 89.3033 26.68 87.25 28.52C85.1967 30.3333 82.5167 31.24 79.21 31.24C78.4633 31.24 77.65 31.1467 76.77 30.96L75.49 41.96H70.25C71.9567 27.2667 73.1033 17.2933 73.69 12.04C74.25 11.8267 75.01 11.72 75.97 11.72ZM85.17 19.88C85.17 18.7067 84.9033 17.6667 84.37 16.76C83.8367 15.8533 83.01 15.4 81.89 15.4C80.37 15.4 79.21 16.3867 78.41 18.36C77.8767 22.3067 77.57 24.6 77.49 25.24C77.4633 26.04 77.7167 26.64 78.25 27.04C78.7833 27.44 79.4367 27.64 80.21 27.64C81.57 27.64 82.69 27.0267 83.57 25.8C84.6367 24.28 85.17 22.3067 85.17 19.88ZM95.7819 1.56C96.3952 0.919998 97.1419 0.599998 98.0219 0.599998C98.9019 0.599998 99.6485 0.919998 100.262 1.56C100.902 2.17333 101.222 2.92 101.222 3.8C101.222 4.68 100.902 5.42667 100.262 6.04C99.6485 6.65333 98.9019 6.96 98.0219 6.96C97.1419 6.96 96.3952 6.65333 95.7819 6.04C95.1685 5.42667 94.8619 4.68 94.8619 3.8C94.8619 2.92 95.1685 2.17333 95.7819 1.56ZM94.1419 13.28C94.4085 12.8 94.9152 12.44 95.6619 12.2C96.4085 11.9333 97.1419 11.8 97.8619 11.8C98.6085 11.8 99.2619 11.8933 99.8219 12.08C98.7819 20.1067 98.2619 24.16 98.2619 24.24C98.1285 24.7733 98.0619 25.2267 98.0619 25.6C98.0619 25.9467 98.0885 26.2533 98.1419 26.52C98.2485 27.2133 98.7285 27.56 99.5819 27.56C100.462 27.56 101.262 27 101.982 25.88C102.729 24.7333 103.289 23.44 103.662 22C103.849 22.1067 104.142 22.4267 104.542 22.96C104.942 23.4933 105.182 23.8933 105.262 24.16C104.729 26.2933 103.822 28.0133 102.542 29.32C101.262 30.6267 99.7285 31.28 97.9419 31.28C96.1552 31.28 94.8219 30.84 93.9419 29.96C93.0885 29.08 92.6619 27.9467 92.6619 26.56C92.6619 26.2667 92.6752 25.96 92.7019 25.64L94.1419 13.28ZM120.12 16.6C120.12 19.3733 118.466 21.4933 115.16 22.96C115.24 23.44 115.36 24.0133 115.52 24.68C116 26.6533 116.8 27.6667 117.92 27.72C118 27.72 118.08 27.72 118.16 27.72C120.293 27.72 121.88 25.84 122.92 22.08C123.48 22.5867 124.013 23.3467 124.52 24.36C124.146 25.8 123.613 27.0133 122.92 28C122.253 28.9867 121.52 29.6933 120.72 30.12C119.306 30.8667 117.973 31.24 116.72 31.24C113.786 31.24 111.733 29.6 110.56 26.32C110.106 25.0133 109.8 23.68 109.64 22.32C111.16 21.9467 112.36 21.3333 113.24 20.48C114.12 19.6 114.56 18.6667 114.56 17.68C114.56 15.9733 113.706 15.12 112 15.12C111.066 15.12 110.266 15.48 109.6 16.2C108.933 16.8933 108.493 17.7333 108.28 18.72C108.12 20.08 107.853 22.2267 107.48 25.16C107.133 28.0667 106.906 30.0133 106.8 31H101.48C103.4 14.6533 104.56 4.61333 104.96 0.879999C105.52 0.666665 106.28 0.559999 107.24 0.559999C109.32 0.559999 110.36 1.17333 110.36 2.4V2.64C109.826 7.46667 109.333 11.16 108.88 13.72C110.346 12.36 112.186 11.68 114.4 11.68C116.053 11.68 117.413 12.1067 118.48 12.96C119.573 13.8133 120.12 15.0267 120.12 16.6Z" fill="url(#paint0_linear_1157_1980)"/>
<defs>
<linearGradient id="paint0_linear_1157_1980" x1="60" y1="-10" x2="60" y2="45" gradientUnits="userSpaceOnUse">
<stop stop-color="#FF8F16"/>
<stop offset="1" stop-color="#EB5C09"/>
</linearGradient>
</defs>
</svg>
